<svg xmlns="http://www.w3.org/2000/svg" viewBox="0 0 200 180" fill="none" aria-hidden="true">
  <path d="M28 142 Q32 138 36 142 T44 142" stroke="#166534" stroke-width="2.5" stroke-linecap="round" fill="none"/>
  <circle cx="100" cy="88" r="52" stroke="#15803d" stroke-width="3" fill="#dcfce7" stroke-dasharray="4 3"/>
  <path d="M100 36 L100 88 L138 108" stroke="#166534" stroke-width="3" stroke-linecap="round" stroke-linejoin="round"/>
  <circle cx="100" cy="88" r="6" fill="#16a34a"/>
  <text x="100" y="28" text-anchor="middle" font-family="Segoe UI, sans-serif" font-size="11" fill="#14532d" font-weight="bold">N</text>
  <path d="M52 118 Q70 95 88 108 Q95 112 102 108" stroke="#22c55e" stroke-width="2" fill="none" stroke-linecap="round"/>
  <rect x="118" y="118" width="48" height="38" rx="4" stroke="#166534" stroke-width="2.5" fill="#f0fdf4" transform="rotate(-4 142 137)"/>
  <path d="M128 128 h28 M128 136 h20 M128 144 h24" stroke="#15803d" stroke-width="2" stroke-linecap="round"/>
  <circle cx="42" cy="58" r="18" stroke="#166534" stroke-width="2.5" fill="#bbf7d0"/>
  <path d="M42 76 v28 M28 88 h28" stroke="#166534" stroke-width="2.5" stroke-linecap="round"/>
  <path d="M155 48 Q165 42 172 52 Q178 62 168 68" stroke="#16a34a" stroke-width="2" fill="none"/>
</svg>
